<svg width="300" height="48" viewBox="0 0 300 48" fill="none" xmlns="http://www.w3.org/2000/svg">
<path fill-rule="evenodd" clip-rule="evenodd" d="M234.428 21.3491L237.083 22.2778C244.493 24.871 250.397 27.4092 250.397 35.0476C250.397 41.2801 244.94 47.7271 235.423 47.7271C226.316 47.7271 220.185 41.5299 220.185 32.6581V32.4558H222.979V33.3226C222.979 40.0548 228.198 45.1312 235.423 45.1312C242.149 45.1312 247.602 40.5436 247.602 35.1134C247.602 29.7023 243.19 27.2619 236.221 24.9178L233.434 23.9892C227.192 21.9085 221.645 19.2759 221.645 12.4786C221.645 6.27799 226.341 0 235.755 0C244.683 0 249.999 5.39142 249.999 14.0719V14.2748H247.204V13.2097C247.204 6.76133 242.849 2.59456 235.755 2.59456C230.203 2.59456 224.44 6.3228 224.44 12.3469C224.44 17.1192 227.802 19.0437 234.428 21.3491ZM157.955 47.0893H160.683V0.635667H157.955V47.0893ZM105.728 0.662467V27.0418C105.728 38.0894 99.9826 45.1311 90.3638 45.1311C80.745 45.1311 74.999 38.0894 74.999 27.0418V0.662467H72.2709V26.976C72.2709 40.0656 78.9919 47.727 90.3638 47.727C101.735 47.727 108.456 40.0656 108.456 26.976V0.662467H105.728ZM34.7973 0.663761L48.7077 43.7028L62.9299 0.663761H65.8813L50.1261 47.0624H47.1631L32.9736 3.75999L18.801 47.0624H15.705L0 0.663761H2.94939L17.3039 43.7028L31.0834 0.663761H34.7973ZM208.829 43.6153L176.736 0.663861H173.38V47.0625H176.108V4.24343L208.133 47.0625H211.557V0.663861H208.829V43.6153ZM133.457 22.2778L130.802 21.3491C124.176 19.0437 120.814 17.1192 120.814 12.3469C120.814 6.3228 126.578 2.59456 132.13 2.59456C139.224 2.59456 143.579 6.76133 143.579 13.2097V14.2748H146.373V14.0719C146.373 5.39142 141.057 0 132.13 0C122.715 0 118.02 6.27799 118.02 12.4786C118.02 19.2759 123.566 21.9085 129.809 23.9892L132.596 24.9178C139.565 27.2619 143.977 29.7023 143.977 35.1134C143.977 40.5436 138.524 45.1312 131.797 45.1312C124.573 45.1312 119.353 40.0548 119.353 33.3226V32.4558H116.559V32.6581C116.559 41.5299 122.69 47.7271 131.797 47.7271C141.314 47.7271 146.771 41.2801 146.771 35.0476C146.771 27.4092 140.868 24.871 133.457 22.2778ZM277.48 4.66954L265.812 30.1332H289.147L277.48 4.66954ZM276.422 0.663562H278.605L300 47.0622H296.899L290.328 32.7276H264.63L258.059 47.0622H254.561L276.422 0.663562Z" fill="#6F7383"/>
</svg>
